<mxfile host="app.diagrams.net" modified="2022-02-21T18:36:41.007Z" agent="5.0 (Macintosh; Intel Mac OS X 10_15_7) AppleWebKit/605.1.15 (KHTML, like Gecko) Version/15.3 Safari/605.1.15" etag="Ni7mwAo_LW7BiIdD0XPT" version="16.6.2" type="github">
  <diagram id="WjwBq3QsW17MDdpkdP5H" name="Page-1">
    <mxGraphModel dx="706" dy="732" grid="1" gridSize="10" guides="1" tooltips="1" connect="1" arrows="1" fold="1" page="1" pageScale="1" pageWidth="827" pageHeight="1169" math="0" shadow="0">
      <root>
        <mxCell id="0" />
        <mxCell id="1" parent="0" />
      </root>
    </mxGraphModel>
  </diagram>
</mxfile>
